<svg xmlns="http://www.w3.org/2000/svg" width="1280" height="540" viewBox="0 0 1280 540" role="img">
<defs>
 <linearGradient id="bg" x1="0" y1="0" x2="1" y2="1"><stop stop-color="#07070b"/><stop offset="1" stop-color="#151022"/></linearGradient>
 <linearGradient id="accent" x1="0" y1="0" x2="1" y2="0"><stop stop-color="#7c3aed"/><stop offset="1" stop-color="#c084fc"/></linearGradient>
 <filter id="glow"><feGaussianBlur stdDeviation="9" result="b"/><feMerge><feMergeNode in="b"/><feMergeNode in="SourceGraphic"/></feMerge></filter>
</defs>
<rect width="1280" height="540" rx="28" fill="url(#bg)" stroke="#34234d" stroke-width="2"/>
<circle cx="1060" cy="115" r="210" fill="#7c3aed" opacity=".07" filter="url(#glow)"/>
<path d="M860 500 C950 330 1060 250 1220 80" fill="none" stroke="#8b5cf6" stroke-width="2" opacity=".4"/>
<text x="64" y="82" fill="#c084fc" font-family="Arial" font-size="24" font-weight="700">MILAN07XT</text>
<text x="64" y="175" fill="#f5f5f7" font-family="Arial" font-size="54" font-weight="700">Hi, I'm Milan Rathod</text>
<text x="64" y="230" fill="#c084fc" font-family="Arial" font-size="27" font-weight="700">Python Developer  •  Django Developer  •  AI/ML Enthusiast</text>
<text x="64" y="274" fill="#b7b3c4" font-family="Arial" font-size="20">Building practical web applications, REST APIs, and intelligent software solutions.</text>
<rect x="64" y="325" width="176" height="50" rx="14" fill="#7c3aed"/>
<text x="100" y="357" fill="white" font-family="Arial" font-size="17" font-weight="700">🌐 Portfolio</text>
<rect x="255" y="325" width="165" height="50" rx="14" fill="#111018" stroke="#7c3aed"/>
<text x="294" y="357" fill="white" font-family="Arial" font-size="17" font-weight="700">in  LinkedIn</text>
<rect x="435" y="325" width="150" height="50" rx="14" fill="#111018" stroke="#7c3aed"/>
<text x="473" y="357" fill="white" font-family="Arial" font-size="17" font-weight="700">◉ GitHub</text>
<circle cx="1060" cy="245" r="128" fill="#171221" stroke="#a855f7" stroke-width="2"/>
<text x="988" y="238" fill="#c084fc" font-family="Arial" font-size="26" font-weight="700">PYTHON</text>
<text x="1000" y="275" fill="#f5f5f7" font-family="Arial" font-size="18">DEVELOPER</text>
</svg>